HIERARCHY
ROOT Hips
{
	OFFSET 0.000000 83.214638 0.000000
	CHANNELS 6 Xposition Yposition Zposition Xrotation Yrotation Zrotation
	JOINT Pelvis
	{
		OFFSET 0.000000 0.000000 0.000000
		CHANNELS 3 Xrotation Yrotation Zrotation
		JOINT LeftUpLeg
		{
			OFFSET 8.479700 -4.795502 -0.379100
			CHANNELS 3 Xrotation Yrotation Zrotation
			JOINT LeftLeg
			{
				OFFSET 0.024144 -32.555107 0.112900
				CHANNELS 3 Xrotation Yrotation Zrotation
				JOINT LeftFoot
				{
					OFFSET -0.024144 -32.638630 -3.012600
					CHANNELS 3 Xrotation Yrotation Zrotation
					JOINT LeftToeBase
					{
						OFFSET 0.970200 -13.225400 11.864200
						CHANNELS 3 Xrotation Yrotation Zrotation
						End Site
						{
							OFFSET 0.000000 12.319262 0.000000
						}
					}
					JOINT LFootTongue
					{
						OFFSET 1.142400 -1.059800 6.665200
						CHANNELS 3 Xrotation Yrotation Zrotation
						End Site
						{
							OFFSET 0.000000 12.319262 0.000000
						}
					}
				}
				JOINT LeftPantLeg
				{
					OFFSET 0.918482 -16.533964 -2.284700
					CHANNELS 3 Xrotation Yrotation Zrotation
					End Site
					{
						OFFSET 0.350399 24.744368 0.000000
					}
				}
			}
		}
		JOINT RightUpLeg
		{
			OFFSET -8.479700 -4.795502 -0.379100
			CHANNELS 3 Xrotation Yrotation Zrotation
			JOINT RightLeg
			{
				OFFSET -0.023144 -32.555092 0.112900
				CHANNELS 3 Xrotation Yrotation Zrotation
				JOINT RightFoot
				{
					OFFSET 0.023144 -32.638641 -3.012700
					CHANNELS 3 Xrotation Yrotation Zrotation
					JOINT RightToeBase
					{
						OFFSET -0.970200 -13.225400 11.864200
						CHANNELS 3 Xrotation Yrotation Zrotation
						End Site
						{
							OFFSET 0.000000 12.319244 0.000000
						}
					}
					JOINT RFootTongue
					{
						OFFSET -1.142200 -1.059800 6.665200
						CHANNELS 3 Xrotation Yrotation Zrotation
						End Site
						{
							OFFSET 0.000000 12.319243 0.000000
						}
					}
				}
				JOINT RightPantLeg
				{
					OFFSET -0.919482 -16.533978 -2.284800
					CHANNELS 3 Xrotation Yrotation Zrotation
					End Site
					{
						OFFSET -0.350400 24.744419 0.000000
					}
				}
			}
		}
	}
	JOINT Spine
	{
		OFFSET 0.000000 7.722000 1.166200
		CHANNELS 3 Xrotation Yrotation Zrotation
		JOINT Spine1
		{
			OFFSET 0.000000 12.024101 0.248800
			CHANNELS 3 Xrotation Yrotation Zrotation
			JOINT Spine2
			{
				OFFSET 0.000000 11.502998 -0.491200
				CHANNELS 3 Xrotation Yrotation Zrotation
				JOINT Neck
				{
					OFFSET 0.000000 18.430702 -3.123100
					CHANNELS 3 Xrotation Yrotation Zrotation
					JOINT Head
					{
						OFFSET 0.000000 9.051102 1.034000
						CHANNELS 3 Xrotation Yrotation Zrotation
						JOINT HairB
						{
							OFFSET 0.208400 24.786102 24.822300
							CHANNELS 3 Xrotation Yrotation Zrotation
							End Site
							{
								OFFSET 0.000000 32.263779 0.000000
							}
						}
						JOINT HairA
						{
							OFFSET -7.081100 24.428299 23.196600
							CHANNELS 3 Xrotation Yrotation Zrotation
							End Site
							{
								OFFSET 0.000000 32.263779 0.000000
							}
						}
						JOINT Hat
						{
							OFFSET 16.728800 15.048294 -15.439601
							CHANNELS 3 Xrotation Yrotation Zrotation
							End Site
							{
								OFFSET 0.000000 32.263779 0.000000
							}
						}
					}
				}
				JOINT LeftShoulder
				{
					OFFSET 6.197800 13.665199 -4.064700
					CHANNELS 3 Xrotation Yrotation Zrotation
					JOINT LeftArm
					{
						OFFSET 7.778100 -0.187103 -1.709300
						CHANNELS 3 Xrotation Yrotation Zrotation
						JOINT LeftForeArm
						{
							OFFSET 22.049376 0.000000 0.000000
							CHANNELS 3 Xrotation Yrotation Zrotation
							JOINT LeftHand
							{
								OFFSET 23.009392 0.000000 0.000000
								CHANNELS 3 Xrotation Yrotation Zrotation
								JOINT LeftHandThumb1
								{
									OFFSET 3.507191 -2.063065 3.133727
									CHANNELS 3 Xrotation Yrotation Zrotation
									JOINT LeftHandThumb2
									{
										OFFSET 3.101337 -1.790558 1.790558
										CHANNELS 3 Xrotation Yrotation Zrotation
										JOINT LeftHandThumb3
										{
											OFFSET 3.058640 -1.765907 1.765906
											CHANNELS 3 Xrotation Yrotation Zrotation
											End Site
											{
												OFFSET -0.415260 3.926476 -0.049563
											}
										}
									}
								}
								JOINT LeftHandIndex1
								{
									OFFSET 11.334419 -0.901459 3.706815
									CHANNELS 3 Xrotation Yrotation Zrotation
									JOINT LeftHandIndex2
									{
										OFFSET 3.283112 0.000000 0.000000
										CHANNELS 3 Xrotation Yrotation Zrotation
										JOINT LeftHandIndex3
										{
											OFFSET 3.323853 0.000000 0.000000
											CHANNELS 3 Xrotation Yrotation Zrotation
											End Site
											{
												OFFSET -1.135597 3.097809 0.402452
											}
										}
									}
								}
								JOINT LeftHandMiddle1
								{
									OFFSET 11.335861 0.000000 0.000000
									CHANNELS 3 Xrotation Yrotation Zrotation
									JOINT LeftHandMiddle2
									{
										OFFSET 3.410492 0.000000 0.000000
										CHANNELS 3 Xrotation Yrotation Zrotation
										JOINT LeftHandMiddle3
										{
											OFFSET 3.312172 0.000000 0.000000
											CHANNELS 3 Xrotation Yrotation Zrotation
											End Site
											{
												OFFSET -1.150200 3.080154 0.400270
											}
										}
									}
								}
								JOINT LeftHandRing1
								{
									OFFSET 11.514786 -0.013176 -3.003090
									CHANNELS 3 Xrotation Yrotation Zrotation
									JOINT LeftHandRing2
									{
										OFFSET 3.053307 0.000000 0.000000
										CHANNELS 3 Xrotation Yrotation Zrotation
										JOINT LeftHandRing3
										{
											OFFSET 3.295807 0.000000 0.000000
											CHANNELS 3 Xrotation Yrotation Zrotation
											End Site
											{
												OFFSET -1.281006 3.013344 0.375733
											}
										}
									}
								}
								JOINT LeftHandPinky1
								{
									OFFSET 10.518692 -0.960396 -5.730441
									CHANNELS 3 Xrotation Yrotation Zrotation
									JOINT LeftHandPinky2
									{
										OFFSET 2.861649 0.000000 0.000000
										CHANNELS 3 Xrotation Yrotation Zrotation
										JOINT LeftHandPinky3
										{
											OFFSET 2.863380 0.000000 0.000000
											CHANNELS 3 Xrotation Yrotation Zrotation
											End Site
											{
												OFFSET -0.843597 2.711159 0.369971
											}
										}
									}
								}
							}
							JOINT LSleeve
							{
								OFFSET 6.676277 -0.344902 -1.011730
								CHANNELS 3 Xrotation Yrotation Zrotation
								End Site
								{
									OFFSET 0.000000 14.885353 0.000000
								}
							}
						}
					}
				}
				JOINT RightShoulder
				{
					OFFSET -6.197800 13.665199 -4.064700
					CHANNELS 3 Xrotation Yrotation Zrotation
					JOINT RightArm
					{
						OFFSET -7.778100 -0.187103 -1.709300
						CHANNELS 3 Xrotation Yrotation Zrotation
						JOINT RightForeArm
						{
							OFFSET -22.049376 0.000000 0.000000
							CHANNELS 3 Xrotation Yrotation Zrotation
							JOINT RightHand
							{
								OFFSET -23.009392 0.000000 0.000000
								CHANNELS 3 Xrotation Yrotation Zrotation
								JOINT RightHandThumb1
								{
									OFFSET -3.507191 -2.063065 3.133727
									CHANNELS 3 Xrotation Yrotation Zrotation
									JOINT RightHandThumb2
									{
										OFFSET -3.101337 -1.790558 1.790558
										CHANNELS 3 Xrotation Yrotation Zrotation
										JOINT RightHandThumb3
										{
											OFFSET -3.058640 -1.765907 1.765906
											CHANNELS 3 Xrotation Yrotation Zrotation
											End Site
											{
												OFFSET 0.415260 3.926476 -0.049563
											}
										}
									}
								}
								JOINT RightHandIndex1
								{
									OFFSET -11.334419 -0.901459 3.706815
									CHANNELS 3 Xrotation Yrotation Zrotation
									JOINT RightHandIndex2
									{
										OFFSET -3.283112 0.000000 0.000000
										CHANNELS 3 Xrotation Yrotation Zrotation
										JOINT RightHandIndex3
										{
											OFFSET -3.323853 0.000000 0.000000
											CHANNELS 3 Xrotation Yrotation Zrotation
											End Site
											{
												OFFSET 1.135597 3.097809 0.402452
											}
										}
									}
								}
								JOINT RightHandMiddle1
								{
									OFFSET -11.335861 0.000000 0.000000
									CHANNELS 3 Xrotation Yrotation Zrotation
									JOINT RightHandMiddle2
									{
										OFFSET -3.410492 0.000000 0.000000
										CHANNELS 3 Xrotation Yrotation Zrotation
										JOINT RightHandMiddle3
										{
											OFFSET -3.312172 0.000000 0.000000
											CHANNELS 3 Xrotation Yrotation Zrotation
											End Site
											{
												OFFSET 1.150200 3.080154 0.400270
											}
										}
									}
								}
								JOINT RightHandRing1
								{
									OFFSET -11.514786 -0.013176 -3.003090
									CHANNELS 3 Xrotation Yrotation Zrotation
									JOINT RightHandRing2
									{
										OFFSET -3.053307 0.000000 0.000000
										CHANNELS 3 Xrotation Yrotation Zrotation
										JOINT RightHandRing3
										{
											OFFSET -3.295807 0.000000 0.000000
											CHANNELS 3 Xrotation Yrotation Zrotation
											End Site
											{
												OFFSET 1.281006 3.013344 0.375733
											}
										}
									}
								}
								JOINT RightHandPinky1
								{
									OFFSET -10.518692 -0.960396 -5.730441
									CHANNELS 3 Xrotation Yrotation Zrotation
									JOINT RightHandPinky2
									{
										OFFSET -2.861649 0.000000 0.000000
										CHANNELS 3 Xrotation Yrotation Zrotation
										JOINT RightHandPinky3
										{
											OFFSET -2.863380 0.000000 0.000000
											CHANNELS 3 Xrotation Yrotation Zrotation
											End Site
											{
												OFFSET 0.843597 2.711159 0.369971
											}
										}
									}
								}
							}
							JOINT RSleeve
							{
								OFFSET -6.676277 -0.344902 -1.011730
								CHANNELS 3 Xrotation Yrotation Zrotation
								End Site
								{
									OFFSET 0.000000 14.885353 0.000000
								}
							}
						}
					}
				}
				JOINT Backpack
				{
					OFFSET 0.000000 -2.471497 36.677502
					CHANNELS 3 Xrotation Yrotation Zrotation
					End Site
					{
						OFFSET 0.000000 20.427315 0.000000
					}
				}
				JOINT Hood
				{
					OFFSET 0.000000 18.754097 -10.431000
					CHANNELS 3 Xrotation Yrotation Zrotation
					JOINT Hood1
					{
						OFFSET 0.000000 -5.011002 -7.685901
						CHANNELS 3 Xrotation Yrotation Zrotation
						End Site
						{
							OFFSET 0.000000 9.175140 0.000000
						}
					}
				}
				JOINT LHoodieString
				{
					OFFSET 5.250500 16.397697 3.089900
					CHANNELS 3 Xrotation Yrotation Zrotation
					JOINT LHoodieString1
					{
						OFFSET 0.257700 -6.364304 3.694600
						CHANNELS 3 Xrotation Yrotation Zrotation
						JOINT LHoodieString2
						{
							OFFSET 0.000000 -9.643799 2.679100
							CHANNELS 3 Xrotation Yrotation Zrotation
							End Site
							{
								OFFSET 0.000000 10.009018 0.000000
							}
						}
					}
				}
				JOINT RHoodieString
				{
					OFFSET -5.250500 16.397697 3.089900
					CHANNELS 3 Xrotation Yrotation Zrotation
					JOINT RHoodieString1
					{
						OFFSET -0.257700 -6.364304 3.694600
						CHANNELS 3 Xrotation Yrotation Zrotation
						JOINT RHoodieString2
						{
							OFFSET 0.000000 -9.643799 2.679100
							CHANNELS 3 Xrotation Yrotation Zrotation
							End Site
							{
								OFFSET 0.000000 10.009018 0.000000
							}
						}
					}
				}
			}
			JOINT LBackpack_Strap
			{
				OFFSET 15.223200 -7.719803 -6.610900
				CHANNELS 3 Xrotation Yrotation Zrotation
				End Site
				{
					OFFSET 0.000000 16.040596 0.000000
				}
			}
			JOINT RBackpack_Strap
			{
				OFFSET -15.223000 -7.719803 -6.610900
				CHANNELS 3 Xrotation Yrotation Zrotation
				End Site
				{
					OFFSET 0.000000 16.040596 0.000000
				}
			}
		}
	}
	JOINT BoyFacialAnim_Joint
	{
		OFFSET 1.000000 -82.208099 -1.550900
		CHANNELS 3 Xrotation Yrotation Zrotation
		End Site
		{
			OFFSET 0.000000 30.012791 0.000000
		}
	}
}
MOTION
Frames: 4
Frame Time: 0.033333
-1.350823 64.970505 -0.684580 -0.298099 -51.623345 -5.807737 -0.000000 -0.000002 -0.000000 -48.297620 -0.172290 45.182726 52.510764 -9.763732 3.555874 -11.894482 -17.834510 -28.662585 0.000000 0.000000 0.000000 0.000000 0.000000 0.000000 -0.000000 0.000002 -0.000002 -33.363292 -7.061725 -29.700463 56.197123 9.388905 -8.615010 -21.293673 -4.583854 29.631666 0.000000 0.000000 -0.000000 0.000000 0.000000 -0.000000 0.000003 -0.000002 -0.000001 6.268294 0.945893 2.893892 12.900329 1.610983 2.168999 12.879324 1.789442 2.136417 -4.411570 5.523632 1.714966 5.159368 31.649898 -25.277839 0.000002 0.000000 -0.000000 0.000002 0.000000 -0.000000 0.000002 0.000000 -0.000000 0.060420 5.022385 -2.512720 -42.685612 10.184806 -44.960956 0.000573 -82.228087 0.000619 -10.902292 -17.049648 -17.396623 15.482429 -7.506491 -9.163074 104.737590 41.403367 -77.048386 0.000001 -0.000000 -0.000003 8.128255 6.767783 -100.465683 7.639875 6.839438 -96.345084 -0.000000 -0.000003 0.000001 8.126319 6.768143 -100.449475 7.641793 6.839221 -96.361306 0.000005 0.000001 0.000001 8.128227 6.767766 -100.465676 7.639874 6.839438 -96.345084 0.000004 0.000001 -0.000000 12.140461 6.033201 -100.402695 7.637094 2.753292 -96.311753 -0.000005 -0.000001 -0.000002 -0.000002 0.000003 0.000000 0.334670 0.668126 -0.504832 -37.428050 30.420249 59.929760 0.000072 99.212555 -0.000092 -8.060093 19.386647 6.112223 20.791388 -26.827296 29.227315 107.876745 -60.017268 67.953231 0.000004 -0.000002 0.000000 7.883488 -6.885303 97.754234 8.081461 -6.855638 99.409237 -0.000002 -0.000000 0.000002 7.883463 -6.885307 97.754227 8.081448 -6.855642 99.409210 0.000000 0.000001 0.000003 7.883469 -6.885278 97.754227 8.081441 -6.855641 99.409223 0.000001 0.000001 0.000004 7.883455 -6.885278 97.754234 8.081478 -6.855670 99.409216 -0.000002 -0.000001 -0.000002 -0.000001 -0.000001 -0.000001 0.000001 0.000003 -0.000001 0.000001 0.000003 -0.000001 0.000001 0.000003 -0.000001 0.000001 0.000003 -0.000001 0.000001 0.000003 -0.000001 -0.000000 -0.000000 -0.000000 0.000001 0.000003 -0.000001 0.000001 0.000003 -0.000001 -0.000000 -0.000000 -0.000000 0.000003 -0.000001 -0.000000 0.000003 -0.000001 -0.000000 -0.000000 -0.000002 -0.000000 
-0.965323 65.584122 -0.191429 0.549150 -52.088997 -5.045040 -0.000000 0.000001 -0.000000 -48.006425 0.405215 44.593106 51.976165 -9.573209 3.185762 -11.751055 -17.074315 -27.895543 -0.000000 0.000000 0.000000 -0.000000 0.000000 0.000000 0.000000 0.000000 -0.000001 -32.937587 -7.258673 -29.425527 53.430268 9.281120 -8.915655 -19.482850 -4.380498 29.843108 -0.000000 0.000000 -0.000000 -0.000000 0.000000 -0.000000 0.000001 0.000001 -0.000003 6.120911 0.924203 2.614076 12.585990 1.569076 1.973565 12.567715 1.724828 1.945188 -4.110739 5.542117 1.584576 6.398000 31.361162 -25.029445 0.000001 -0.000000 0.000000 0.000001 -0.000000 0.000000 0.000001 -0.000000 0.000000 0.030121 4.983121 -2.070008 -42.882045 11.335347 -42.323390 0.000087 -82.506663 0.000013 -12.372522 -16.367592 -17.387741 15.482432 -7.506491 -9.163072 104.737590 41.403370 -77.048386 -0.000003 0.000001 -0.000001 8.128255 6.767783 -100.465676 7.639876 6.839445 -96.345084 -0.000001 -0.000002 -0.000002 8.126322 6.768141 -100.449468 7.641798 6.839231 -96.361313 0.000006 0.000002 -0.000001 8.128232 6.767768 -100.465676 7.639876 6.839439 -96.345091 -0.000001 -0.000002 -0.000004 12.140461 6.033207 -100.402695 7.637094 2.753294 -96.311753 0.000001 -0.000001 0.000003 0.000003 0.000002 0.000001 0.331291 0.636027 -0.527486 -34.766978 29.287445 57.179212 -0.000009 99.701542 -0.000013 -8.991057 19.822520 6.492214 20.791381 -26.827299 29.227315 107.876752 -60.017268 67.953238 0.000001 0.000001 -0.000002 7.883490 -6.885306 97.754234 8.081463 -6.855636 99.409230 -0.000000 -0.000000 -0.000000 7.883468 -6.885308 97.754227 8.081449 -6.855638 99.409210 0.000003 0.000003 0.000002 7.883465 -6.885280 97.754227 8.081445 -6.855642 99.409223 0.000002 0.000001 -0.000001 7.883456 -6.885281 97.754234 8.081482 -6.855668 99.409216 -0.000002 -0.000001 -0.000002 0.000001 -0.000000 -0.000000 0.000001 0.000001 -0.000000 0.000001 0.000001 -0.000000 0.000001 0.000001 -0.000000 0.000001 0.000001 -0.000000 0.000001 0.000001 0.000001 -0.000000 0.000001 -0.000000 0.000001 0.000001 -0.000000 0.000001 0.000001 0.000001 -0.000000 0.000001 -0.000000 0.000002 -0.000002 0.000001 0.000002 -0.000002 0.000001 -0.000000 0.000001 -0.000000 
-0.515788 66.126343 0.253969 1.984938 -52.560092 -3.701804 0.000000 -0.000003 -0.000000 -48.096351 0.844510 43.867003 51.521384 -9.356597 2.700448 -11.512216 -16.212161 -27.070401 0.000000 -0.000000 -0.000000 0.000000 -0.000000 -0.000000 -0.000002 0.000000 0.000000 -32.984319 -7.281420 -29.307597 50.759538 9.108026 -9.148567 -17.692563 -4.074591 30.125195 -0.000000 0.000002 -0.000000 -0.000000 0.000002 -0.000000 0.000001 0.000003 -0.000002 5.916513 0.922610 2.274844 12.164114 1.546599 1.677904 12.148285 1.678845 1.653547 -3.917147 5.582973 1.415608 6.968357 31.248191 -24.911307 -0.000001 -0.000000 -0.000000 -0.000001 -0.000000 -0.000000 -0.000001 -0.000000 -0.000000 -0.017344 5.008403 -1.451991 -44.007609 12.266824 -39.892266 -0.000153 -82.646040 -0.000137 -13.641792 -15.794944 -17.254730 15.482432 -7.506491 -9.163074 104.737597 41.403370 -77.048393 -0.000001 -0.000002 -0.000001 8.128258 6.767783 -100.465676 7.639877 6.839441 -96.345084 -0.000000 0.000001 -0.000003 8.126323 6.768142 -100.449468 7.641792 6.839225 -96.361306 0.000005 -0.000003 0.000002 8.128229 6.767768 -100.465676 7.639877 6.839444 -96.345091 -0.000004 -0.000001 -0.000002 12.140463 6.033201 -100.402695 7.637097 2.753295 -96.311760 0.000001 -0.000000 0.000003 0.000000 -0.000003 -0.000003 0.316478 0.557329 -0.837257 -33.890716 27.756871 55.815565 -0.000009 100.147970 0.000006 -9.910780 20.019705 7.348954 20.791379 -26.827293 29.227315 107.876745 -60.017268 67.953245 -0.000001 -0.000001 0.000001 7.883493 -6.885303 97.754234 8.081458 -6.855636 99.409230 -0.000000 -0.000001 0.000003 7.883468 -6.885304 97.754227 8.081449 -6.855643 99.409216 0.000002 0.000002 0.000000 7.883470 -6.885275 97.754221 8.081446 -6.855643 99.409223 0.000001 0.000001 0.000004 7.883458 -6.885277 97.754227 8.081479 -6.855667 99.409216 -0.000002 -0.000001 -0.000002 0.000002 0.000000 -0.000000 -0.000002 0.000001 -0.000001 -0.000002 0.000001 -0.000001 -0.000002 0.000001 -0.000001 -0.000002 0.000001 -0.000001 -0.000002 0.000001 -0.000001 -0.000003 0.000001 -0.000001 -0.000002 0.000001 -0.000001 -0.000002 0.000001 -0.000001 -0.000003 0.000001 -0.000001 -0.000000 -0.000001 -0.000000 -0.000000 -0.000001 -0.000000 0.000000 -0.000003 -0.000000 
-0.003209 66.471329 0.660074 3.724655 -53.050807 -2.009136 -0.000000 0.000002 -0.000001 -48.593070 1.051909 43.112434 51.556074 -9.142259 2.179151 -11.417607 -15.352448 -26.252780 0.000000 -0.000000 0.000000 0.000000 -0.000000 0.000000 0.000001 0.000001 0.000003 -33.574007 -7.084490 -29.494389 48.576182 8.949297 -9.289462 -16.035780 -3.565087 30.544715 -0.000000 -0.000002 0.000000 -0.000000 -0.000002 0.000000 -0.000001 0.000001 -0.000001 5.703185 0.949019 1.917963 11.733460 1.573852 1.321052 11.719378 1.685115 1.299720 -3.880420 5.633608 1.216874 6.847509 31.262988 -25.064103 0.000001 -0.000000 -0.000000 0.000001 -0.000000 -0.000000 0.000001 -0.000000 -0.000000 -0.082479 5.190049 -0.761377 -45.774739 12.535421 -38.139131 0.000496 -82.645624 0.000484 -13.961355 -15.665017 -16.860360 15.482427 -7.506488 -9.163071 104.737590 41.403367 -77.048386 0.000002 0.000000 -0.000002 8.128257 6.767785 -100.465676 7.639880 6.839441 -96.345084 -0.000000 0.000001 -0.000005 8.126317 6.768144 -100.449468 7.641797 6.839228 -96.361306 0.000002 -0.000003 0.000002 8.128228 6.767771 -100.465669 7.639875 6.839441 -96.345091 -0.000000 0.000004 -0.000007 12.140461 6.033205 -100.402695 7.637092 2.753289 -96.311753 -0.000000 -0.000001 -0.000000 -0.000001 -0.000001 -0.000002 0.289644 0.429234 -1.408083 -34.885953 26.249085 55.806675 0.000169 100.463675 -0.000174 -10.666208 20.062974 8.292792 20.791390 -26.827293 29.227312 107.876739 -60.017262 67.953245 -0.000000 -0.000000 0.000001 7.883491 -6.885305 97.754234 8.081461 -6.855640 99.409237 0.000003 -0.000001 0.000002 7.883473 -6.885305 97.754221 8.081445 -6.855631 99.409216 0.000006 0.000001 -0.000000 7.883468 -6.885275 97.754227 8.081444 -6.855647 99.409230 0.000005 -0.000001 0.000004 7.883459 -6.885278 97.754234 8.081479 -6.855667 99.409216 -0.000003 -0.000002 0.000000 -0.000001 0.000000 0.000001 0.000002 0.000002 -0.000000 0.000002 0.000002 -0.000000 0.000002 0.000002 -0.000000 0.000002 0.000002 -0.000000 0.000002 0.000002 -0.000000 -0.000000 0.000002 -0.000001 0.000002 0.000002 -0.000000 0.000002 0.000002 -0.000000 -0.000000 0.000002 -0.000001 -0.000000 0.000001 -0.000001 -0.000000 0.000001 -0.000001 -0.000000 0.000002 -0.000001 
